<?xml version="1.0" encoding="UTF-8"?>
<!DOCTYPE svg PUBLIC "-//W3C//DTD SVG 1.1//EN" "http://www.w3.org/Graphics/SVG/1.1/DTD/svg11.dtd">
<svg xmlns="http://www.w3.org/2000/svg" version="1.1" width="347px" height="306px" style="shape-rendering:geometricPrecision; text-rendering:geometricPrecision; image-rendering:optimizeQuality; fill-rule:evenodd; clip-rule:evenodd" xmlns:xlink="http://www.w3.org/1999/xlink">
<g><path style="opacity:1" fill="#0f512f" d="M 179.5,2.5 C 191.326,1.34033 203.326,1.17366 215.5,2C 219.736,2.33489 223.736,3.16823 227.5,4.5C 211.547,2.97779 195.547,2.31112 179.5,2.5 Z"/></g>
<g><path style="opacity:1" fill="#056332" d="M 175.5,2.5 C 176.833,2.5 178.167,2.5 179.5,2.5C 195.547,2.31112 211.547,2.97779 227.5,4.5C 231.479,4.74241 235.146,5.74241 238.5,7.5C 236.538,9.6384 234.038,10.9717 231,11.5C 229.69,13.9515 228.524,16.4515 227.5,19C 221.667,18.6698 216.334,20.0031 211.5,23C 208.899,23.9203 206.232,24.587 203.5,25C 201.963,26.7073 200.296,28.2073 198.5,29.5C 197.788,28.2613 196.788,27.7613 195.5,28C 193.739,35.6002 191.239,36.1002 188,29.5C 187.257,31.6447 186.424,31.8114 185.5,30C 184.118,27.6677 184.784,26.0011 187.5,25C 186.5,24.1667 185.5,23.3333 184.5,22.5C 186.538,20.7236 188.704,19.0569 191,17.5C 191.402,16.1279 191.902,14.7946 192.5,13.5C 191.609,12.4104 190.609,12.4104 189.5,13.5C 188.833,11.8333 188.167,10.1667 187.5,8.5C 186.583,7.87277 185.583,7.53944 184.5,7.5C 183.833,7.5 183.167,7.5 182.5,7.5C 180.631,6.83538 178.631,6.16871 176.5,5.5C 175.873,4.58317 175.539,3.58317 175.5,2.5 Z"/></g>
<g><path style="opacity:1" fill="#22909c" d="M 175.5,2.5 C 175.539,3.58317 175.873,4.58317 176.5,5.5C 178.631,6.16871 180.631,6.83538 182.5,7.5C 181.167,7.5 179.833,7.5 178.5,7.5C 176.336,6.52249 174.17,5.52249 172,4.5C 167.849,5.33076 163.683,5.99743 159.5,6.5C 164.562,4.54869 169.896,3.21536 175.5,2.5 Z"/></g>
<g><path style="opacity:1" fill="#239795" d="M 153.5,7.5 C 154.29,8.79423 155.29,9.9609 156.5,11C 154.345,12.3569 152.178,12.5236 150,11.5C 148.715,11.9504 147.548,12.6171 146.5,13.5C 145.614,12.675 145.281,11.675 145.5,10.5C 148.007,9.10841 150.673,8.10841 153.5,7.5 Z"/></g>
<g><path style="opacity:1" fill="#07653c" d="M 158.5,6.5 C 159.511,8.37156 160.345,10.3716 161,12.5C 162.356,13.3802 163.856,13.7135 165.5,13.5C 165.026,17.2674 166.359,20.1007 169.5,22C 169.257,22.9021 168.923,23.7354 168.5,24.5C 166.61,24.7035 165.11,24.0368 164,22.5C 163.667,24.5 163.333,26.5 163,28.5C 158.715,32.5333 154.882,32.0333 151.5,27C 149.423,26.8078 147.423,26.3078 145.5,25.5C 147.416,23.1902 149.749,22.8569 152.5,24.5C 157.483,23.214 158.483,20.5473 155.5,16.5C 150.868,15.6717 146.202,15.1717 141.5,15C 140.748,14.3292 140.414,13.4959 140.5,12.5C 141.93,11.4625 143.597,10.7959 145.5,10.5C 145.281,11.675 145.614,12.675 146.5,13.5C 147.548,12.6171 148.715,11.9504 150,11.5C 152.178,12.5236 154.345,12.3569 156.5,11C 155.29,9.9609 154.29,8.79423 153.5,7.5C 155.117,6.962 156.784,6.62867 158.5,6.5 Z"/></g>
<g><path style="opacity:1" fill="#0a5f36" d="M 132.5,16.5 C 133.167,16.8333 133.833,17.1667 134.5,17.5C 134.815,19.2259 134.981,20.8925 135,22.5C 132.985,23.6966 131.151,25.0299 129.5,26.5C 124.582,28.6055 119.582,30.6055 114.5,32.5C 113.516,35.4281 113.183,38.4281 113.5,41.5C 115.099,41.2322 116.432,41.5655 117.5,42.5C 114.319,42.7423 111.319,42.7423 108.5,42.5C 110.012,41.7506 111.012,40.584 111.5,39C 110.822,36.0089 110.822,33.1755 111.5,30.5C 108.482,31.6863 106.482,33.853 105.5,37C 99.1443,40.1809 93.811,44.6809 89.5,50.5C 88.0603,51.9524 86.3936,52.9524 84.5,53.5C 97.5932,37.4082 113.593,25.0748 132.5,16.5 Z"/></g>
<g><path style="opacity:1" fill="#1b938d" d="M 134.5,17.5 C 135.659,18.4558 136.826,19.4558 138,20.5C 139.914,19.9205 141.581,18.9205 143,17.5C 144.726,18.6479 144.559,19.8145 142.5,21C 140.285,21.1705 138.285,21.8372 136.5,23C 137.416,23.2784 138.082,23.7784 138.5,24.5C 135.633,24.3692 133.967,25.7026 133.5,28.5C 133.167,28.5 132.833,28.5 132.5,28.5C 132.179,26.9519 131.179,26.2852 129.5,26.5C 131.151,25.0299 132.985,23.6966 135,22.5C 134.981,20.8925 134.815,19.2259 134.5,17.5 Z"/></g>
<g><path style="opacity:1" fill="#026748" d="M 138.5,24.5 C 139.404,25.209 139.737,26.209 139.5,27.5C 137.435,27.5172 135.435,27.8505 133.5,28.5C 133.967,25.7026 135.633,24.3692 138.5,24.5 Z"/></g>
<g><path style="opacity:1" fill="#1faec2" d="M 178.5,7.5 C 179.833,7.5 181.167,7.5 182.5,7.5C 183.167,7.5 183.833,7.5 184.5,7.5C 188.848,12.3183 188.348,16.6516 183,20.5C 182.209,24.9255 182.543,29.2589 184,33.5C 186.425,35.7531 189.258,36.5864 192.5,36C 194.394,33.6108 196.394,31.4441 198.5,29.5C 200.296,28.2073 201.963,26.7073 203.5,25C 206.232,24.587 208.899,23.9203 211.5,23C 216.334,20.0031 221.667,18.6698 227.5,19C 228.524,16.4515 229.69,13.9515 231,11.5C 234.038,10.9717 236.538,9.6384 238.5,7.5C 242.915,7.8606 246.915,9.19393 250.5,11.5C 247.843,11.162 245.51,11.8287 243.5,13.5C 242.935,11.4904 241.935,9.82373 240.5,8.5C 239.049,10.5589 237.049,11.5589 234.5,11.5C 232.403,16.3666 233.403,17.3666 237.5,14.5C 238.113,15.9798 238.446,17.3131 238.5,18.5C 241.23,15.5584 244.23,15.0584 247.5,17C 245.235,18.1178 242.901,18.9512 240.5,19.5C 240.421,20.9305 240.754,22.2638 241.5,23.5C 241.043,24.2975 240.376,24.6309 239.5,24.5C 239.206,21.3539 237.539,20.1872 234.5,21C 231.793,22.1277 229.293,23.6277 227,25.5C 226.53,26.5768 226.697,27.5768 227.5,28.5C 225.08,28.7076 222.747,28.3742 220.5,27.5C 217.763,29.1022 214.763,29.9355 211.5,30C 212.842,32.8916 215.175,34.2249 218.5,34C 219.5,35 220.5,36 221.5,37C 218.167,37.6667 214.833,37.6667 211.5,37C 209.205,35.7363 206.871,34.5696 204.5,33.5C 202.253,34.4056 200.253,35.7389 198.5,37.5C 196.538,35.2537 194.538,35.4203 192.5,38C 190.553,38.9913 188.553,39.3247 186.5,39C 185.667,36.8333 184.167,35.3333 182,34.5C 180.08,29.6431 178.414,24.6431 177,19.5C 176.333,18.1667 175.667,18.1667 175,19.5C 174.736,15.3044 176.236,11.8044 179.5,9C 178.944,8.61742 178.611,8.11742 178.5,7.5 Z"/></g>
<g><path style="opacity:1" fill="#05643e" d="M 184.5,7.5 C 185.583,7.53944 186.583,7.87277 187.5,8.5C 188.167,10.1667 188.833,11.8333 189.5,13.5C 190.609,12.4104 191.609,12.4104 192.5,13.5C 191.902,14.7946 191.402,16.1279 191,17.5C 188.704,19.0569 186.538,20.7236 184.5,22.5C 185.5,23.3333 186.5,24.1667 187.5,25C 184.784,26.0011 184.118,27.6677 185.5,30C 186.424,31.8114 187.257,31.6447 188,29.5C 191.239,36.1002 193.739,35.6002 195.5,28C 196.788,27.7613 197.788,28.2613 198.5,29.5C 196.394,31.4441 194.394,33.6108 192.5,36C 189.258,36.5864 186.425,35.7531 184,33.5C 182.543,29.2589 182.209,24.9255 183,20.5C 188.348,16.6516 188.848,12.3183 184.5,7.5 Z"/></g>
<g><path style="opacity:1" fill="#21acbe" d="M 140.5,12.5 C 140.414,13.4959 140.748,14.3292 141.5,15C 146.202,15.1717 150.868,15.6717 155.5,16.5C 158.483,20.5473 157.483,23.214 152.5,24.5C 149.749,22.8569 147.416,23.1902 145.5,25.5C 147.423,26.3078 149.423,26.8078 151.5,27C 154.882,32.0333 158.715,32.5333 163,28.5C 163.333,26.5 163.667,24.5 164,22.5C 165.11,24.0368 166.61,24.7035 168.5,24.5C 167.9,28.1295 167.233,31.7961 166.5,35.5C 164.752,33.0065 163.086,33.1732 161.5,36C 165.975,37.9269 166.642,40.7603 163.5,44.5C 162.883,44.3893 162.383,44.056 162,43.5C 161.433,40.8323 160.933,38.1656 160.5,35.5C 157.739,36.9205 154.739,37.5871 151.5,37.5C 151.041,31.7671 148.041,29.7671 142.5,31.5C 141.156,33.5286 139.823,35.5286 138.5,37.5C 137.779,40.2669 136.113,42.2669 133.5,43.5C 133.374,41.8002 132.707,40.3002 131.5,39C 131.833,38.5 132.167,38 132.5,37.5C 133.814,38.3128 134.981,39.3128 136,40.5C 136.54,38.8654 136.04,37.5321 134.5,36.5C 135.246,35.2638 135.579,33.9305 135.5,32.5C 137.288,32.7852 138.955,32.4519 140.5,31.5C 136.794,28.3371 134.461,29.0038 133.5,33.5C 132.178,33.33 131.011,33.6634 130,34.5C 129.833,34 129.667,33.5 129.5,33C 130.315,31.3566 131.315,29.8566 132.5,28.5C 132.833,28.5 133.167,28.5 133.5,28.5C 135.435,27.8505 137.435,27.5172 139.5,27.5C 139.737,26.209 139.404,25.209 138.5,24.5C 138.082,23.7784 137.416,23.2784 136.5,23C 138.285,21.8372 140.285,21.1705 142.5,21C 144.559,19.8145 144.726,18.6479 143,17.5C 141.581,18.9205 139.914,19.9205 138,20.5C 136.826,19.4558 135.659,18.4558 134.5,17.5C 133.833,17.1667 133.167,16.8333 132.5,16.5C 134.849,14.659 137.515,13.3257 140.5,12.5 Z"/></g>
<g><path style="opacity:1" fill="#046330" d="M 266.5,35.5 C 266.5,35.1667 266.5,34.8333 266.5,34.5C 268.792,30.9741 271.626,30.6407 275,33.5C 275.75,32.8742 276.584,32.3742 277.5,32C 275.744,31.7978 274.078,31.2978 272.5,30.5C 273.504,27.5011 275.504,26.3345 278.5,27C 281.002,28.3375 283.002,30.1708 284.5,32.5C 284.297,34.2077 283.464,35.541 282,36.5C 281.506,38.1341 281.34,39.8008 281.5,41.5C 280.5,41.5 279.5,41.5 278.5,41.5C 278.36,39.8762 279.027,38.7096 280.5,38C 279.23,37.1004 278.23,35.9337 277.5,34.5C 274.056,36.7864 270.389,37.1197 266.5,35.5 Z"/></g>
<g><path style="opacity:1" fill="#1daec8" d="M 178.5,7.5 C 178.611,8.11742 178.944,8.61742 179.5,9C 176.236,11.8044 174.736,15.3044 175,19.5C 175.667,18.1667 176.333,18.1667 177,19.5C 178.414,24.6431 180.08,29.6431 182,34.5C 184.167,35.3333 185.667,36.8333 186.5,39C 188.553,39.3247 190.553,38.9913 192.5,38C 194.538,35.4203 196.538,35.2537 198.5,37.5C 200.253,35.7389 202.253,34.4056 204.5,33.5C 206.871,34.5696 209.205,35.7363 211.5,37C 214.833,37.6667 218.167,37.6667 221.5,37C 220.5,36 219.5,35 218.5,34C 215.175,34.2249 212.842,32.8916 211.5,30C 214.763,29.9355 217.763,29.1022 220.5,27.5C 222.747,28.3742 225.08,28.7076 227.5,28.5C 230.874,28.3256 234.207,27.8256 237.5,27C 238.756,26.5831 239.423,25.7498 239.5,24.5C 240.376,24.6309 241.043,24.2975 241.5,23.5C 240.754,22.2638 240.421,20.9305 240.5,19.5C 242.901,18.9512 245.235,18.1178 247.5,17C 244.23,15.0584 241.23,15.5584 238.5,18.5C 238.446,17.3131 238.113,15.9798 237.5,14.5C 233.403,17.3666 232.403,16.3666 234.5,11.5C 237.049,11.5589 239.049,10.5589 240.5,8.5C 241.935,9.82373 242.935,11.4904 243.5,13.5C 245.51,11.8287 247.843,11.162 250.5,11.5C 258.196,13.5162 265.196,16.8495 271.5,21.5C 271.046,23.2589 271.046,25.2589 271.5,27.5C 269.533,27.2606 267.699,27.5939 266,28.5C 264.873,31.3771 264.206,34.3771 264,37.5C 264.122,34.0343 262.789,31.3676 260,29.5C 259.667,31.5 259.333,33.5 259,35.5C 258.647,33.9261 257.98,32.2594 257,30.5C 256.717,33.7423 255.883,34.0756 254.5,31.5C 253.571,32.6888 253.238,34.0222 253.5,35.5C 251.901,35.2322 250.568,35.5655 249.5,36.5C 249.167,37.1667 248.833,37.8333 248.5,38.5C 247.539,40.2646 247.205,42.2646 247.5,44.5C 244.575,44.4598 241.909,45.2932 239.5,47C 238.193,48.9435 238.193,50.7768 239.5,52.5C 241.184,54.2018 243.184,55.7018 245.5,57C 241.872,58.7252 241.038,61.2252 243,64.5C 244.487,63.7471 244.654,62.9138 243.5,62C 244.354,60.9783 245.354,60.1449 246.5,59.5C 247.265,60.6119 248.265,61.2786 249.5,61.5C 252.451,62.8094 253.784,65.1427 253.5,68.5C 249.486,68.3345 245.486,68.5012 241.5,69C 239.897,72.983 239.23,77.1496 239.5,81.5C 235.2,81.7547 231.2,82.7547 227.5,84.5C 217.733,86.97 208.733,90.97 200.5,96.5C 199.391,96.5569 198.391,96.8902 197.5,97.5C 195.956,97.7031 194.622,98.3698 193.5,99.5C 185.202,96.0176 177.202,92.0176 169.5,87.5C 169.5,86.1667 169.5,84.8333 169.5,83.5C 165.339,81.9372 161.005,81.2705 156.5,81.5C 151.62,78.9808 146.62,76.6474 141.5,74.5C 141.532,71.9242 140.865,69.5909 139.5,67.5C 139.842,66.6618 140.508,66.3284 141.5,66.5C 142.893,67.2598 144.393,67.9265 146,68.5C 147.825,68.0566 149.658,67.7233 151.5,67.5C 152.478,67.189 153.145,66.5223 153.5,65.5C 151.744,63.8087 151.244,61.8087 152,59.5C 153.616,58.1991 155.116,58.1991 156.5,59.5C 156.62,60.5862 157.287,61.2528 158.5,61.5C 161.496,60.3315 164.496,60.3315 167.5,61.5C 167.5,59.8333 167.5,58.1667 167.5,56.5C 166.022,56.762 164.689,56.4287 163.5,55.5C 164.246,54.2638 164.579,52.9305 164.5,51.5C 165.833,50.1667 165.833,48.8333 164.5,47.5C 163.89,46.609 163.557,45.609 163.5,44.5C 166.642,40.7603 165.975,37.9269 161.5,36C 163.086,33.1732 164.752,33.0065 166.5,35.5C 167.233,31.7961 167.9,28.1295 168.5,24.5C 168.923,23.7354 169.257,22.9021 169.5,22C 166.359,20.1007 165.026,17.2674 165.5,13.5C 163.856,13.7135 162.356,13.3802 161,12.5C 160.345,10.3716 159.511,8.37156 158.5,6.5C 158.833,6.5 159.167,6.5 159.5,6.5C 163.683,5.99743 167.849,5.33076 172,4.5C 174.17,5.52249 176.336,6.52249 178.5,7.5 Z"/></g>
<g><path style="opacity:1" fill="#086944" d="M 239.5,24.5 C 239.423,25.7498 238.756,26.5831 237.5,27C 234.207,27.8256 230.874,28.3256 227.5,28.5C 226.697,27.5768 226.53,26.5768 227,25.5C 229.293,23.6277 231.793,22.1277 234.5,21C 237.539,20.1872 239.206,21.3539 239.5,24.5 Z"/></g>
<g><path style="opacity:1" fill="#05633f" d="M 275.5,23.5 C 279.221,25.3535 282.554,27.6869 285.5,30.5C 286.084,33.9828 285.251,36.9828 283,39.5C 282.51,40.7932 282.343,42.1266 282.5,43.5C 280.958,44.3007 279.292,44.634 277.5,44.5C 278.022,38.6683 275.688,36.6683 270.5,38.5C 268.381,38.5323 267.048,37.5323 266.5,35.5C 270.389,37.1197 274.056,36.7864 277.5,34.5C 278.23,35.9337 279.23,37.1004 280.5,38C 279.027,38.7096 278.36,39.8762 278.5,41.5C 279.5,41.5 280.5,41.5 281.5,41.5C 281.34,39.8008 281.506,38.1341 282,36.5C 283.464,35.541 284.297,34.2077 284.5,32.5C 283.002,30.1708 281.002,28.3375 278.5,27C 275.504,26.3345 273.504,27.5011 272.5,30.5C 274.078,31.2978 275.744,31.7978 277.5,32C 276.584,32.3742 275.75,32.8742 275,33.5C 271.626,30.6407 268.792,30.9741 266.5,34.5C 265.295,33.3281 265.295,31.9948 266.5,30.5C 268.078,29.7022 269.744,29.2022 271.5,29C 273.21,27.3492 274.544,25.5158 275.5,23.5 Z"/></g>
<g><path style="opacity:1" fill="#22abba" d="M 285.5,30.5 C 289.122,32.7867 292.455,35.4534 295.5,38.5C 294.081,39.4511 292.415,39.7845 290.5,39.5C 290.5,41.5 290.5,43.5 290.5,45.5C 288.167,45.5 285.833,45.5 283.5,45.5C 283.167,44.8333 282.833,44.1667 282.5,43.5C 282.343,42.1266 282.51,40.7932 283,39.5C 285.251,36.9828 286.084,33.9828 285.5,30.5 Z"/></g>
<g><path style="opacity:1" fill="#26a19d" d="M 270.5,38.5 C 275.688,36.6683 278.022,38.6683 277.5,44.5C 279.292,44.634 280.958,44.3007 282.5,43.5C 282.833,44.1667 283.167,44.8333 283.5,45.5C 280.609,46.4025 277.609,46.7359 274.5,46.5C 275.01,43.6122 274.344,41.2789 272.5,39.5C 272.158,38.6618 271.492,38.3284 270.5,38.5 Z"/></g>
<g><path style="opacity:1" fill="#1cafca" d="M 129.5,26.5 C 131.179,26.2852 132.179,26.9519 132.5,28.5C 131.315,29.8566 130.315,31.3566 129.5,33C 129.667,33.5 129.833,34 130,34.5C 131.011,33.6634 132.178,33.33 133.5,33.5C 134.461,29.0038 136.794,28.3371 140.5,31.5C 138.955,32.4519 137.288,32.7852 135.5,32.5C 135.579,33.9305 135.246,35.2638 134.5,36.5C 136.04,37.5321 136.54,38.8654 136,40.5C 134.981,39.3128 133.814,38.3128 132.5,37.5C 132.167,38 131.833,38.5 131.5,39C 132.707,40.3002 133.374,41.8002 133.5,43.5C 133.5,44.1667 133.167,44.5 132.5,44.5C 128.769,44.8149 125.435,43.8149 122.5,41.5C 123.506,40.6043 123.506,39.9377 122.5,39.5C 120.154,40.0147 117.487,40.348 114.5,40.5C 114.5,38.1667 114.5,35.8333 114.5,33.5C 116.527,33.6621 118.527,33.4955 120.5,33C 122.49,31.2494 124.823,30.2494 127.5,30C 128.823,29.1841 129.489,28.0174 129.5,26.5 Z"/></g>
<g><path style="opacity:1" fill="#066741" d="M 163.5,44.5 C 163.557,45.609 163.89,46.609 164.5,47.5C 161.025,46.0951 158.359,43.7618 156.5,40.5C 156.709,39.914 157.043,39.414 157.5,39C 154.833,38.6667 152.167,38.3333 149.5,38C 149.833,37.6667 150.167,37.3333 150.5,37C 149.421,36.044 148.255,35.2106 147,34.5C 144.126,34.9592 141.792,36.2925 140,38.5C 139.617,37.944 139.117,37.6107 138.5,37.5C 139.823,35.5286 141.156,33.5286 142.5,31.5C 148.041,29.7671 151.041,31.7671 151.5,37.5C 154.739,37.5871 157.739,36.9205 160.5,35.5C 160.933,38.1656 161.433,40.8323 162,43.5C 162.383,44.056 162.883,44.3893 163.5,44.5 Z"/></g>
<g><path style="opacity:1" fill="#0a6852" d="M 295.5,38.5 C 296.5,38.8333 297.167,39.5 297.5,40.5C 295.833,40.5 294.167,40.5 292.5,40.5C 292.923,42.7812 292.256,44.4479 290.5,45.5C 290.5,43.5 290.5,41.5 290.5,39.5C 292.415,39.7845 294.081,39.4511 295.5,38.5 Z"/></g>
<g><path style="opacity:1" fill="#056843" d="M 272.5,39.5 C 274.344,41.2789 275.01,43.6122 274.5,46.5C 277.609,46.7359 280.609,46.4025 283.5,45.5C 285.833,45.5 288.167,45.5 290.5,45.5C 288.708,46.3091 286.708,46.8091 284.5,47C 286.645,47.7431 286.811,48.5765 285,49.5C 280.931,48.6535 276.764,47.9868 272.5,47.5C 269.312,48.1298 266.312,49.1298 263.5,50.5C 264.687,48.0246 266.687,47.0246 269.5,47.5C 270.082,44.6871 271.082,42.0204 272.5,39.5 Z"/></g>
<g><path style="opacity:1" fill="#23adb8" d="M 129.5,26.5 C 129.489,28.0174 128.823,29.1841 127.5,30C 124.823,30.2494 122.49,31.2494 120.5,33C 118.527,33.4955 116.527,33.6621 114.5,33.5C 114.5,35.8333 114.5,38.1667 114.5,40.5C 117.487,40.348 120.154,40.0147 122.5,39.5C 123.506,39.9377 123.506,40.6043 122.5,41.5C 125.435,43.8149 128.769,44.8149 132.5,44.5C 130.998,46.175 129.665,48.0083 128.5,50C 127.552,50.4828 126.552,50.6495 125.5,50.5C 126.163,45.8303 124.163,43.1636 119.5,42.5C 118.833,42.5 118.167,42.5 117.5,42.5C 116.432,41.5655 115.099,41.2322 113.5,41.5C 113.183,38.4281 113.516,35.4281 114.5,32.5C 119.582,30.6055 124.582,28.6055 129.5,26.5 Z"/></g>
<g><path style="opacity:1" fill="#1faec9" d="M 269.5,47.5 C 266.687,47.0246 264.687,48.0246 263.5,50.5C 262.833,50.8333 262.167,51.1667 261.5,51.5C 260.5,51.5 259.5,51.5 258.5,51.5C 257.725,47.8184 259.059,45.3184 262.5,44C 261.234,43.6905 260.067,43.1905 259,42.5C 258.667,42.8333 258.333,43.1667 258,43.5C 256.126,41.431 255.126,39.0977 255,36.5C 255.779,37.7282 256.779,38.7282 258,39.5C 259.168,38.4911 260.335,37.4911 261.5,36.5C 262.2,39.0149 263.533,39.6816 265.5,38.5C 265.338,40.6311 266.671,41.6311 269.5,41.5C 269.5,43.5 269.5,45.5 269.5,47.5 Z"/></g>
<g><path style="opacity:1" fill="#114d2e" d="M 297.5,40.5 C 302.23,44.2269 306.23,48.5603 309.5,53.5C 305.925,50.2675 302.258,46.9342 298.5,43.5C 297.614,42.675 297.281,41.675 297.5,40.5 Z"/></g>
<g><path style="opacity:1" fill="#066844" d="M 249.5,36.5 C 250.833,36.5 252.167,36.5 253.5,36.5C 254.637,39.6767 254.637,42.8433 253.5,46C 255.657,47.6116 256.991,49.7782 257.5,52.5C 255,53.5 252.5,54.5 250,55.5C 249.167,55.1667 248.333,54.8333 247.5,54.5C 248.994,52.0576 249.994,49.391 250.5,46.5C 248.771,44.1489 248.104,41.4822 248.5,38.5C 248.833,37.8333 249.167,37.1667 249.5,36.5 Z"/></g>
<g><path style="opacity:1" fill="#046331" d="M 297.5,40.5 C 297.281,41.675 297.614,42.675 298.5,43.5C 302.258,46.9342 305.925,50.2675 309.5,53.5C 313.126,56.0948 315.792,59.4281 317.5,63.5C 316.486,64.6737 315.153,65.3404 313.5,65.5C 312.833,65.1667 312.167,64.8333 311.5,64.5C 311.265,63.9033 310.765,63.5699 310,63.5C 308.697,63.9783 307.531,64.645 306.5,65.5C 299.691,62.7119 298.358,64.3786 302.5,70.5C 300.117,71.3866 297.784,72.3866 295.5,73.5C 290.39,72.9251 288.557,70.2584 290,65.5C 289.667,66.1667 289.333,66.8333 289,67.5C 286.959,66.5769 284.792,66.2436 282.5,66.5C 280.703,65.2702 278.703,64.6036 276.5,64.5C 276.5,65.5 276.5,66.5 276.5,67.5C 276.631,68.3764 276.298,69.0431 275.5,69.5C 273.149,67.7711 270.482,67.1044 267.5,67.5C 267.137,65.0885 268.137,63.5885 270.5,63C 269.552,62.5172 268.552,62.3505 267.5,62.5C 267.5,61.5 267.5,60.5 267.5,59.5C 266.325,59.281 265.325,59.6143 264.5,60.5C 264.945,63.055 264.945,65.7216 264.5,68.5C 262.943,65.2177 261.277,62.051 259.5,59C 261.31,56.4078 262.644,53.5744 263.5,50.5C 266.312,49.1298 269.312,48.1298 272.5,47.5C 276.764,47.9868 280.931,48.6535 285,49.5C 286.811,48.5765 286.645,47.7431 284.5,47C 286.708,46.8091 288.708,46.3091 290.5,45.5C 292.256,44.4479 292.923,42.7812 292.5,40.5C 294.167,40.5 295.833,40.5 297.5,40.5 Z"/></g>
<g><path style="opacity:1" fill="#22a8b0" d="M 156.5,59.5 C 155.116,58.1991 153.616,58.1991 152,59.5C 151.244,61.8087 151.744,63.8087 153.5,65.5C 153.145,66.5223 152.478,67.189 151.5,67.5C 151.296,65.3146 150.63,63.3146 149.5,61.5C 149.5,60.5 149.5,59.5 149.5,58.5C 147.5,58.5 145.5,58.5 143.5,58.5C 143.5,57.5 143.5,56.5 143.5,55.5C 149.358,56.0125 155.025,55.3458 160.5,53.5C 161.583,54.365 161.749,55.365 161,56.5C 159.385,57.3862 157.885,58.3862 156.5,59.5 Z"/></g>
<g><path style="opacity:1" fill="#066a49" d="M 164.5,51.5 C 164.579,52.9305 164.246,54.2638 163.5,55.5C 164.689,56.4287 166.022,56.762 167.5,56.5C 167.5,58.1667 167.5,59.8333 167.5,61.5C 164.496,60.3315 161.496,60.3315 158.5,61.5C 157.287,61.2528 156.62,60.5862 156.5,59.5C 157.885,58.3862 159.385,57.3862 161,56.5C 161.749,55.365 161.583,54.365 160.5,53.5C 155.025,55.3458 149.358,56.0125 143.5,55.5C 147.684,54.8336 152.018,54.1669 156.5,53.5C 156.291,52.914 155.957,52.414 155.5,52C 156.667,51.5 157.5,50.6667 158,49.5C 159.789,51.229 161.956,51.8957 164.5,51.5 Z"/></g>
<g><path style="opacity:1" fill="#21acb9" d="M 271.5,21.5 C 273.153,21.6596 274.486,22.3263 275.5,23.5C 274.544,25.5158 273.21,27.3492 271.5,29C 269.744,29.2022 268.078,29.7022 266.5,30.5C 265.295,31.9948 265.295,33.3281 266.5,34.5C 266.5,34.8333 266.5,35.1667 266.5,35.5C 267.048,37.5323 268.381,38.5323 270.5,38.5C 271.492,38.3284 272.158,38.6618 272.5,39.5C 271.082,42.0204 270.082,44.6871 269.5,47.5C 269.5,45.5 269.5,43.5 269.5,41.5C 266.671,41.6311 265.338,40.6311 265.5,38.5C 263.533,39.6816 262.2,39.0149 261.5,36.5C 260.335,37.4911 259.168,38.4911 258,39.5C 256.779,38.7282 255.779,37.7282 255,36.5C 255.126,39.0977 256.126,41.431 258,43.5C 258.333,43.1667 258.667,42.8333 259,42.5C 260.067,43.1905 261.234,43.6905 262.5,44C 259.059,45.3184 257.725,47.8184 258.5,51.5C 259.5,51.5 260.5,51.5 261.5,51.5C 258.04,55.3966 253.707,57.3966 248.5,57.5C 248.433,58.9587 248.766,60.2921 249.5,61.5C 248.265,61.2786 247.265,60.6119 246.5,59.5C 245.354,60.1449 244.354,60.9783 243.5,62C 244.654,62.9138 244.487,63.7471 243,64.5C 241.038,61.2252 241.872,58.7252 245.5,57C 243.184,55.7018 241.184,54.2018 239.5,52.5C 238.193,50.7768 238.193,48.9435 239.5,47C 241.909,45.2932 244.575,44.4598 247.5,44.5C 247.205,42.2646 247.539,40.2646 248.5,38.5C 248.104,41.4822 248.771,44.1489 250.5,46.5C 249.994,49.391 248.994,52.0576 247.5,54.5C 248.333,54.8333 249.167,55.1667 250,55.5C 252.5,54.5 255,53.5 257.5,52.5C 256.991,49.7782 255.657,47.6116 253.5,46C 254.637,42.8433 254.637,39.6767 253.5,36.5C 252.167,36.5 250.833,36.5 249.5,36.5C 250.568,35.5655 251.901,35.2322 253.5,35.5C 253.238,34.0222 253.571,32.6888 254.5,31.5C 255.883,34.0756 256.717,33.7423 257,30.5C 257.98,32.2594 258.647,33.9261 259,35.5C 259.333,33.5 259.667,31.5 260,29.5C 262.789,31.3676 264.122,34.0343 264,37.5C 264.206,34.3771 264.873,31.3771 266,28.5C 267.699,27.5939 269.533,27.2606 271.5,27.5C 271.046,25.2589 271.046,23.2589 271.5,21.5 Z"/></g>
<g><path style="opacity:1" fill="#056748" d="M 239.5,52.5 C 239.286,50.8561 239.62,49.3561 240.5,48C 242.868,47.1436 245.202,46.3103 247.5,45.5C 247.425,51.1657 244.758,53.4991 239.5,52.5 Z"/></g>
<g><path style="opacity:1" fill="#0a653a" d="M 263.5,50.5 C 262.644,53.5744 261.31,56.4078 259.5,59C 261.277,62.051 262.943,65.2177 264.5,68.5C 264.945,65.7216 264.945,63.055 264.5,60.5C 265.325,59.6143 266.325,59.281 267.5,59.5C 267.5,60.5 267.5,61.5 267.5,62.5C 268.552,62.3505 269.552,62.5172 270.5,63C 268.137,63.5885 267.137,65.0885 267.5,67.5C 270.482,67.1044 273.149,67.7711 275.5,69.5C 276.298,69.0431 276.631,68.3764 276.5,67.5C 279.579,69.4668 282.412,71.8001 285,74.5C 286.784,80.1933 284.95,82.5266 279.5,81.5C 281.053,80.561 282.387,79.3943 283.5,78C 283.252,76.2509 282.252,75.4176 280.5,75.5C 278.022,73.1975 275.355,71.0308 272.5,69C 268.867,69.3676 265.2,69.8676 261.5,70.5C 261.5,71.5 261.5,72.5 261.5,73.5C 258.429,76.2464 255.429,78.9131 252.5,81.5C 248.167,81.5 243.833,81.5 239.5,81.5C 239.23,77.1496 239.897,72.983 241.5,69C 245.486,68.5012 249.486,68.3345 253.5,68.5C 253.784,65.1427 252.451,62.8094 249.5,61.5C 248.766,60.2921 248.433,58.9587 248.5,57.5C 253.707,57.3966 258.04,55.3966 261.5,51.5C 262.167,51.1667 262.833,50.8333 263.5,50.5 Z"/></g>
<g><path style="opacity:1" fill="#0b6e55" d="M 149.5,61.5 C 150.63,63.3146 151.296,65.3146 151.5,67.5C 149.658,67.7233 147.825,68.0566 146,68.5C 144.393,67.9265 142.893,67.2598 141.5,66.5C 143.292,65.6909 145.292,65.1909 147.5,65C 148.085,63.6976 148.751,62.531 149.5,61.5 Z"/></g>
<g><path style="opacity:1" fill="#25a9af" d="M 311.5,64.5 C 307.655,66.6647 306.989,69.498 309.5,73C 310.908,73.3152 312.241,72.9819 313.5,72C 312.476,70.6329 312.976,69.7995 315,69.5C 319.102,70.4012 319.269,71.2345 315.5,72C 317.579,72.8077 319.579,72.641 321.5,71.5C 320.165,67.996 317.832,66.996 314.5,68.5C 313.614,67.675 313.281,66.675 313.5,65.5C 315.153,65.3404 316.486,64.6737 317.5,63.5C 320.579,66.6505 322.913,70.3171 324.5,74.5C 317.285,74.0515 310.285,74.7182 303.5,76.5C 300.918,76.0254 298.918,76.6921 297.5,78.5C 296.209,77.4583 296.209,76.2917 297.5,75C 300.157,74.8253 302.824,74.9919 305.5,75.5C 305.489,73.4534 305.156,71.4534 304.5,69.5C 304.752,67.9271 305.418,66.5938 306.5,65.5C 307.531,64.645 308.697,63.9783 310,63.5C 310.765,63.5699 311.265,63.9033 311.5,64.5 Z"/></g>
<g><path style="opacity:1" fill="#056332" d="M 117.5,42.5 C 118.167,42.5 118.833,42.5 119.5,42.5C 119.881,43.9311 120.881,44.7645 122.5,45C 122.167,45.3333 121.833,45.6667 121.5,46C 123.229,47.7889 123.896,49.9556 123.5,52.5C 126.374,52.3766 128.874,51.3766 131,49.5C 131.308,50.3081 131.808,50.9747 132.5,51.5C 133.693,49.4733 135.36,47.9733 137.5,47C 137.057,45.4815 137.724,44.3148 139.5,43.5C 138.652,41.5914 138.318,39.5914 138.5,37.5C 139.117,37.6107 139.617,37.944 140,38.5C 141.792,36.2925 144.126,34.9592 147,34.5C 148.255,35.2106 149.421,36.044 150.5,37C 150.167,37.3333 149.833,37.6667 149.5,38C 152.167,38.3333 154.833,38.6667 157.5,39C 157.043,39.414 156.709,39.914 156.5,40.5C 158.359,43.7618 161.025,46.0951 164.5,47.5C 165.833,48.8333 165.833,50.1667 164.5,51.5C 161.956,51.8957 159.789,51.229 158,49.5C 157.5,50.6667 156.667,51.5 155.5,52C 155.957,52.414 156.291,52.914 156.5,53.5C 152.018,54.1669 147.684,54.8336 143.5,55.5C 143.5,56.5 143.5,57.5 143.5,58.5C 145.5,58.5 147.5,58.5 149.5,58.5C 149.5,59.5 149.5,60.5 149.5,61.5C 148.751,62.531 148.085,63.6976 147.5,65C 145.292,65.1909 143.292,65.6909 141.5,66.5C 140.508,66.3284 139.842,66.6618 139.5,67.5C 136.287,67.19 133.287,67.5233 130.5,68.5C 125.387,66.7768 120.387,64.7768 115.5,62.5C 111.649,61.1905 107.649,61.1905 103.5,62.5C 105.771,66.2739 108.604,69.6072 112,72.5C 112.96,76.2985 114.294,79.9651 116,83.5C 116.671,84.2524 117.504,84.5858 118.5,84.5C 119.239,84.369 119.906,84.5357 120.5,85C 116.324,89.0091 112.324,93.1757 108.5,97.5C 106.912,105.294 104.912,105.294 102.5,97.5C 100.924,96.925 99.2578,96.5916 97.5,96.5C 92.4278,98.4826 87.0945,99.6493 81.5,100C 79.0038,101.331 77.0038,103.164 75.5,105.5C 72.3792,108.229 71.7126,111.562 73.5,115.5C 73.1519,117.697 72.1519,119.53 70.5,121C 66.8546,121.719 63.1879,122.219 59.5,122.5C 59.5,122.167 59.5,121.833 59.5,121.5C 60.6341,119.034 60.8007,116.367 60,113.5C 56.3062,110.404 56.1395,107.404 59.5,104.5C 58.6426,101.549 58.6426,98.5491 59.5,95.5C 62.1119,93.9478 63.4452,91.6145 63.5,88.5C 66.3851,87.455 68.5518,85.455 70,82.5C 71.0113,83.3366 72.1779,83.67 73.5,83.5C 73.5,82.1667 73.5,80.8333 73.5,79.5C 69.9206,79.2343 69.5873,77.901 72.5,75.5C 72.1667,74.8333 71.8333,74.1667 71.5,73.5C 76.3488,67.1271 80.6821,60.4604 84.5,53.5C 86.3936,52.9524 88.0603,51.9524 89.5,50.5C 93.811,44.6809 99.1443,40.1809 105.5,37C 106.482,33.853 108.482,31.6863 111.5,30.5C 110.822,33.1755 110.822,36.0089 111.5,39C 111.012,40.584 110.012,41.7506 108.5,42.5C 111.319,42.7423 114.319,42.7423 117.5,42.5 Z"/></g>
<g><path style="opacity:1" fill="#096843" d="M 138.5,37.5 C 138.318,39.5914 138.652,41.5914 139.5,43.5C 137.724,44.3148 137.057,45.4815 137.5,47C 135.36,47.9733 133.693,49.4733 132.5,51.5C 131.808,50.9747 131.308,50.3081 131,49.5C 128.874,51.3766 126.374,52.3766 123.5,52.5C 123.896,49.9556 123.229,47.7889 121.5,46C 121.833,45.6667 122.167,45.3333 122.5,45C 120.881,44.7645 119.881,43.9311 119.5,42.5C 124.163,43.1636 126.163,45.8303 125.5,50.5C 126.552,50.6495 127.552,50.4828 128.5,50C 129.665,48.0083 130.998,46.175 132.5,44.5C 133.167,44.5 133.5,44.1667 133.5,43.5C 136.113,42.2669 137.779,40.2669 138.5,37.5 Z"/></g>
<g><path style="opacity:1" fill="#1fafc7" d="M 311.5,64.5 C 312.167,64.8333 312.833,65.1667 313.5,65.5C 313.281,66.675 313.614,67.675 314.5,68.5C 317.832,66.996 320.165,67.996 321.5,71.5C 319.579,72.641 317.579,72.8077 315.5,72C 319.269,71.2345 319.102,70.4012 315,69.5C 312.976,69.7995 312.476,70.6329 313.5,72C 312.241,72.9819 310.908,73.3152 309.5,73C 306.989,69.498 307.655,66.6647 311.5,64.5 Z"/></g>
<g><path style="opacity:1" fill="#9aafae" d="M 139.5,67.5 C 140.865,69.5909 141.532,71.9242 141.5,74.5C 137.638,72.7381 133.972,70.7381 130.5,68.5C 133.287,67.5233 136.287,67.19 139.5,67.5 Z"/></g>
<g><path style="opacity:1" fill="#05653d" d="M 306.5,65.5 C 305.418,66.5938 304.752,67.9271 304.5,69.5C 305.156,71.4534 305.489,73.4534 305.5,75.5C 302.824,74.9919 300.157,74.8253 297.5,75C 296.209,76.2917 296.209,77.4583 297.5,78.5C 297.803,81.5876 296.47,83.2542 293.5,83.5C 293.771,81.6203 293.104,80.287 291.5,79.5C 290.992,77.1346 290.325,74.8013 289.5,72.5C 286.909,70.7188 284.575,68.7188 282.5,66.5C 284.792,66.2436 286.959,66.5769 289,67.5C 289.333,66.8333 289.667,66.1667 290,65.5C 288.557,70.2584 290.39,72.9251 295.5,73.5C 297.784,72.3866 300.117,71.3866 302.5,70.5C 298.358,64.3786 299.691,62.7119 306.5,65.5 Z"/></g>
<g><path style="opacity:1" fill="#1dafc9" d="M 280.5,75.5 C 280.026,79.1569 278.693,79.3236 276.5,76C 272.825,75.4046 272.658,76.238 276,78.5C 276.49,79.7932 276.657,81.1266 276.5,82.5C 270.167,82.5 263.833,82.5 257.5,82.5C 258.038,79.0955 259.371,76.0955 261.5,73.5C 261.5,72.5 261.5,71.5 261.5,70.5C 265.2,69.8676 268.867,69.3676 272.5,69C 275.355,71.0308 278.022,73.1975 280.5,75.5 Z"/></g>
<g><path style="opacity:1" fill="#105c35" d="M 84.5,53.5 C 80.6821,60.4604 76.3488,67.1271 71.5,73.5C 71.8333,74.1667 72.1667,74.8333 72.5,75.5C 69.5873,77.901 69.9206,79.2343 73.5,79.5C 73.5,80.8333 73.5,82.1667 73.5,83.5C 72.1779,83.67 71.0113,83.3366 70,82.5C 68.5518,85.455 66.3851,87.455 63.5,88.5C 63.4452,91.6145 62.1119,93.9478 59.5,95.5C 65.3058,79.8711 73.6391,65.8711 84.5,53.5 Z"/></g>
<g><path style="opacity:1" fill="#abbcb1" d="M 115.5,62.5 C 112.482,62.3354 109.482,62.502 106.5,63C 107.806,65.9068 109.806,68.0735 112.5,69.5C 113.993,75.1579 116.993,79.8246 121.5,83.5C 120.209,83.2627 119.209,83.596 118.5,84.5C 117.504,84.5858 116.671,84.2524 116,83.5C 114.294,79.9651 112.96,76.2985 112,72.5C 108.604,69.6072 105.771,66.2739 103.5,62.5C 107.649,61.1905 111.649,61.1905 115.5,62.5 Z"/></g>
<g><path style="opacity:1" fill="#27a8b2" d="M 282.5,66.5 C 284.575,68.7188 286.909,70.7188 289.5,72.5C 290.325,74.8013 290.992,77.1346 291.5,79.5C 290.735,79.0766 289.902,78.7432 289,78.5C 286.058,82.9904 281.892,84.6571 276.5,83.5C 276.5,84.8333 276.5,86.1667 276.5,87.5C 275.566,86.4324 275.232,85.099 275.5,83.5C 269.31,83.1771 263.31,83.5104 257.5,84.5C 256.5,83.8333 255.5,83.1667 254.5,82.5C 253.508,82.6716 252.842,82.3382 252.5,81.5C 255.429,78.9131 258.429,76.2464 261.5,73.5C 259.371,76.0955 258.038,79.0955 257.5,82.5C 263.833,82.5 270.167,82.5 276.5,82.5C 276.657,81.1266 276.49,79.7932 276,78.5C 272.658,76.238 272.825,75.4046 276.5,76C 278.693,79.3236 280.026,79.1569 280.5,75.5C 282.252,75.4176 283.252,76.2509 283.5,78C 282.387,79.3943 281.053,80.561 279.5,81.5C 284.95,82.5266 286.784,80.1933 285,74.5C 282.412,71.8001 279.579,69.4668 276.5,67.5C 276.5,66.5 276.5,65.5 276.5,64.5C 278.703,64.6036 280.703,65.2702 282.5,66.5 Z"/></g>
<g><path style="opacity:1" fill="#9fb4bd" d="M 156.5,81.5 C 161.005,81.2705 165.339,81.9372 169.5,83.5C 169.5,84.8333 169.5,86.1667 169.5,87.5C 164.937,85.7145 160.604,83.7145 156.5,81.5 Z"/></g>
<g><path style="opacity:1" fill="#1eaec4" d="M 303.5,76.5 C 303.081,79.3245 304.081,81.4912 306.5,83C 310.821,83.499 315.154,83.6657 319.5,83.5C 319.5,84.8333 319.5,86.1667 319.5,87.5C 319.708,89.9201 319.374,92.2534 318.5,94.5C 311.678,95.8181 305.011,95.8181 298.5,94.5C 297.726,93.8529 296.726,93.5195 295.5,93.5C 292.87,95.2794 289.87,96.2794 286.5,96.5C 281.911,94.8757 278.577,91.8757 276.5,87.5C 276.5,86.1667 276.5,84.8333 276.5,83.5C 281.892,84.6571 286.058,82.9904 289,78.5C 289.902,78.7432 290.735,79.0766 291.5,79.5C 293.104,80.287 293.771,81.6203 293.5,83.5C 296.47,83.2542 297.803,81.5876 297.5,78.5C 298.918,76.6921 300.918,76.0254 303.5,76.5 Z"/></g>
<g><path style="opacity:1" fill="#e1e3e3" d="M 115.5,62.5 C 120.387,64.7768 125.387,66.7768 130.5,68.5C 133.972,70.7381 137.638,72.7381 141.5,74.5C 146.62,76.6474 151.62,78.9808 156.5,81.5C 160.604,83.7145 164.937,85.7145 169.5,87.5C 177.202,92.0176 185.202,96.0176 193.5,99.5C 194.622,98.3698 195.956,97.7031 197.5,97.5C 197.196,98.1499 196.863,98.8165 196.5,99.5C 192.808,100.564 189.142,101.73 185.5,103C 179.966,106.698 174.299,110.198 168.5,113.5C 164.748,114.793 161.415,116.126 158.5,117.5C 156.666,112.518 154.166,107.851 151,103.5C 139.066,92.7372 127.233,81.7372 115.5,70.5C 114.583,69.8728 113.583,69.5394 112.5,69.5C 109.806,68.0735 107.806,65.9068 106.5,63C 109.482,62.502 112.482,62.3354 115.5,62.5 Z"/></g>
<g><path style="opacity:1" fill="#dcf4f5" d="M 227.5,84.5 C 227.5,85.1667 227.5,85.8333 227.5,86.5C 221.519,88.4954 215.519,90.4954 209.5,92.5C 209.5,93.5 209.5,94.5 209.5,95.5C 206.455,95.5079 203.455,95.8413 200.5,96.5C 208.733,90.97 217.733,86.97 227.5,84.5 Z"/></g>
<g><path style="opacity:1" fill="#0b5f38" d="M 324.5,74.5 C 336.229,93.0457 342.895,113.379 344.5,135.5C 341.956,135.896 339.789,135.229 338,133.5C 338.365,128.237 336.365,124.237 332,121.5C 330.53,118.256 329.363,114.923 328.5,111.5C 329.966,112.347 330.8,113.68 331,115.5C 331.333,115.167 331.667,114.833 332,114.5C 332.333,116.5 332.667,118.5 333,120.5C 334.406,121.668 335.572,121.335 336.5,119.5C 337.304,122.44 338.637,125.107 340.5,127.5C 341.326,123.486 341.159,119.486 340,115.5C 337.569,112.806 336.736,109.806 337.5,106.5C 334.49,99.6541 331.824,92.9874 329.5,86.5C 328.914,86.7093 328.414,87.0426 328,87.5C 327.764,85.236 327.264,83.0693 326.5,81C 324.385,80.4427 322.385,79.6094 320.5,78.5C 319.232,79.4279 317.899,79.5946 316.5,79C 314.557,75.3591 311.891,74.6925 308.5,77C 312.897,79.4408 317.231,81.7741 321.5,84C 321.192,85.4595 320.525,86.6261 319.5,87.5C 319.5,86.1667 319.5,84.8333 319.5,83.5C 315.154,83.6657 310.821,83.499 306.5,83C 304.081,81.4912 303.081,79.3245 303.5,76.5C 310.285,74.7182 317.285,74.0515 324.5,74.5 Z"/></g>
<g><path style="opacity:1" fill="#259ba9" d="M 118.5,84.5 C 119.209,83.596 120.209,83.2627 121.5,83.5C 124.997,87.1659 128.331,90.9992 131.5,95C 130.584,95.2784 129.918,95.7784 129.5,96.5C 127.337,95.2799 125.17,95.2799 123,96.5C 121.124,95.381 120.291,93.7144 120.5,91.5C 116.336,91.1429 113.169,92.8095 111,96.5C 111.07,99.992 110.237,102.992 108.5,105.5C 108.5,102.833 108.5,100.167 108.5,97.5C 112.324,93.1757 116.324,89.0091 120.5,85C 119.906,84.5357 119.239,84.369 118.5,84.5 Z"/></g>
<g><path style="opacity:1" fill="#9cc8c5" d="M 239.5,81.5 C 239.5,82.8333 239.5,84.1667 239.5,85.5C 238.167,85.5 236.833,85.5 235.5,85.5C 238.051,91.1519 239.051,97.1519 238.5,103.5C 238.167,103.5 237.833,103.5 237.5,103.5C 236.472,99.0805 234.972,94.7472 233,90.5C 231.568,88.5612 229.735,87.2279 227.5,86.5C 227.5,85.8333 227.5,85.1667 227.5,84.5C 231.2,82.7547 235.2,81.7547 239.5,81.5 Z"/></g>
<g><path style="opacity:1" fill="#f3f2f2" d="M 239.5,81.5 C 243.833,81.5 248.167,81.5 252.5,81.5C 252.842,82.3382 253.508,82.6716 254.5,82.5C 254.877,84.258 255.544,85.9246 256.5,87.5C 254.863,90.7448 252.863,93.7448 250.5,96.5C 249.702,94.9223 249.202,93.2556 249,91.5C 248.71,93.0441 248.044,94.3774 247,95.5C 245.694,91.1991 243.194,87.8658 239.5,85.5C 239.5,84.1667 239.5,82.8333 239.5,81.5 Z"/></g>
<g><path style="opacity:1" fill="#056332" d="M 328.5,111.5 C 325.322,107.989 322.988,103.989 321.5,99.5C 318.794,99.4249 316.127,99.0916 313.5,98.5C 313.693,101.308 314.36,103.975 315.5,106.5C 315.674,109.874 316.174,113.207 317,116.5C 320.438,117.974 322.271,120.641 322.5,124.5C 321.572,125.768 321.405,127.101 322,128.5C 322.893,127.289 323.726,127.289 324.5,128.5C 323.691,130.071 323.357,131.738 323.5,133.5C 325.91,132.562 328.244,132.562 330.5,133.5C 331.896,135.762 333.563,137.929 335.5,140C 338.507,140.301 341.507,140.135 344.5,139.5C 345.833,145.167 345.833,150.833 344.5,156.5C 338.896,160.269 334.062,164.936 330,170.5C 330.17,179.189 330.003,187.856 329.5,196.5C 324.757,199.314 321.424,203.314 319.5,208.5C 320.583,210.875 320.583,213.208 319.5,215.5C 317.742,216.128 316.242,217.128 315,218.5C 314.654,221.576 313.988,224.576 313,227.5C 307.152,234.506 299.652,237.84 290.5,237.5C 289.375,231.58 286.875,226.247 283,221.5C 282.667,218.167 282.333,214.833 282,211.5C 279.894,209.623 278.561,207.29 278,204.5C 277.324,199.129 277.491,193.796 278.5,188.5C 279.629,186.372 279.796,184.039 279,181.5C 278.572,176.06 276.405,171.394 272.5,167.5C 271.673,163.541 271.173,159.541 271,155.5C 267.409,154.921 264.576,153.088 262.5,150C 260.866,149.506 259.199,149.34 257.5,149.5C 250.512,150.721 243.512,150.721 236.5,149.5C 235.8,146.415 233.967,144.415 231,143.5C 230.517,142.552 230.351,141.552 230.5,140.5C 228.435,140.483 226.435,140.15 224.5,139.5C 223.167,138.833 222.167,137.833 221.5,136.5C 221.205,134.265 221.539,132.265 222.5,130.5C 225.349,128.575 228.349,126.909 231.5,125.5C 232.748,126.04 233.915,126.707 235,127.5C 235.483,126.552 235.649,125.552 235.5,124.5C 243.555,121.293 250.722,116.626 257,110.5C 257.333,110.833 257.667,111.167 258,111.5C 260.135,108.727 261.635,105.561 262.5,102C 261.959,97.0352 260.292,93.2019 257.5,90.5C 257.5,88.5 257.5,86.5 257.5,84.5C 263.31,83.5104 269.31,83.1771 275.5,83.5C 275.232,85.099 275.566,86.4324 276.5,87.5C 278.577,91.8757 281.911,94.8757 286.5,96.5C 287.274,97.1471 288.274,97.4805 289.5,97.5C 292.13,95.7206 295.13,94.7206 298.5,94.5C 305.011,95.8181 311.678,95.8181 318.5,94.5C 319.374,92.2534 319.708,89.9201 319.5,87.5C 320.525,86.6261 321.192,85.4595 321.5,84C 317.231,81.7741 312.897,79.4408 308.5,77C 311.891,74.6925 314.557,75.3591 316.5,79C 317.899,79.5946 319.232,79.4279 320.5,78.5C 322.385,79.6094 324.385,80.4427 326.5,81C 327.264,83.0693 327.764,85.236 328,87.5C 328.414,87.0426 328.914,86.7093 329.5,86.5C 331.824,92.9874 334.49,99.6541 337.5,106.5C 336.736,109.806 337.569,112.806 340,115.5C 341.159,119.486 341.326,123.486 340.5,127.5C 338.637,125.107 337.304,122.44 336.5,119.5C 335.572,121.335 334.406,121.668 333,120.5C 332.667,118.5 332.333,116.5 332,114.5C 331.667,114.833 331.333,115.167 331,115.5C 330.8,113.68 329.966,112.347 328.5,111.5 Z"/></g>
<g><path style="opacity:1" fill="#4eb6b5" d="M 239.5,85.5 C 240.421,87.2687 241.588,88.9354 243,90.5C 243.392,93.1879 243.892,95.8546 244.5,98.5C 243.711,101.568 241.711,103.235 238.5,103.5C 239.051,97.1519 238.051,91.1519 235.5,85.5C 236.833,85.5 238.167,85.5 239.5,85.5 Z"/></g>
<g><path style="opacity:1" fill="#deeeea" d="M 254.5,82.5 C 255.5,83.1667 256.5,83.8333 257.5,84.5C 257.5,86.5 257.5,88.5 257.5,90.5C 254.043,95.7912 249.71,100.291 244.5,104C 237.302,108.432 229.968,112.598 222.5,116.5C 219.397,118.384 216.063,119.718 212.5,120.5C 212.821,118.952 213.821,118.285 215.5,118.5C 215.33,117.178 215.663,116.011 216.5,115C 218.917,115.462 221.083,115.295 223,114.5C 223.311,113.258 222.811,112.258 221.5,111.5C 224.487,111.466 227.487,111.132 230.5,110.5C 230.354,105.563 231.354,104.897 233.5,108.5C 233.736,107.753 234.07,106.92 234.5,106C 235.449,105.383 236.282,105.549 237,106.5C 237.483,105.552 237.649,104.552 237.5,103.5C 237.833,103.5 238.167,103.5 238.5,103.5C 241.711,103.235 243.711,101.568 244.5,98.5C 243.892,95.8546 243.392,93.1879 243,90.5C 241.588,88.9354 240.421,87.2687 239.5,85.5C 243.194,87.8658 245.694,91.1991 247,95.5C 248.044,94.3774 248.71,93.0441 249,91.5C 249.202,93.2556 249.702,94.9223 250.5,96.5C 252.863,93.7448 254.863,90.7448 256.5,87.5C 255.544,85.9246 254.877,84.258 254.5,82.5 Z"/></g>
<g><path style="opacity:1" fill="#0b7a68" d="M 298.5,94.5 C 295.13,94.7206 292.13,95.7206 289.5,97.5C 288.274,97.4805 287.274,97.1471 286.5,96.5C 289.87,96.2794 292.87,95.2794 295.5,93.5C 296.726,93.5195 297.726,93.8529 298.5,94.5 Z"/></g>
<g><path style="opacity:1" fill="#c8cccd" d="M 112.5,69.5 C 113.583,69.5394 114.583,69.8728 115.5,70.5C 127.233,81.7372 139.066,92.7372 151,103.5C 154.166,107.851 156.666,112.518 158.5,117.5C 155.777,118.98 153.11,120.647 150.5,122.5C 150.598,120.447 149.931,118.78 148.5,117.5C 146.974,111.465 143.641,106.632 138.5,103C 137.423,102.53 136.423,102.697 135.5,103.5C 134.167,103.5 132.833,103.5 131.5,103.5C 130.551,101.263 129.884,98.9294 129.5,96.5C 129.918,95.7784 130.584,95.2784 131.5,95C 128.331,90.9992 124.997,87.1659 121.5,83.5C 116.993,79.8246 113.993,75.1579 112.5,69.5 Z"/></g>
<g><path style="opacity:1" fill="#126340" d="M 59.5,95.5 C 58.6426,98.5491 58.6426,101.549 59.5,104.5C 56.1395,107.404 56.3062,110.404 60,113.5C 60.8007,116.367 60.6341,119.034 59.5,121.5C 58.6862,119.369 58.1862,117.036 58,114.5C 57.2411,112.937 56.0744,111.937 54.5,111.5C 55.3904,105.834 57.057,100.5 59.5,95.5 Z"/></g>
<g><path style="opacity:1" fill="#2a97a9" d="M 148.5,117.5 C 146.569,116.741 145.069,115.407 144,113.5C 142.144,115.667 139.977,116.334 137.5,115.5C 134.643,112.405 134.31,109.238 136.5,106C 136.257,105.098 135.923,104.265 135.5,103.5C 136.423,102.697 137.423,102.53 138.5,103C 143.641,106.632 146.974,111.465 148.5,117.5 Z"/></g>
<g><path style="opacity:1" fill="#07542a" d="M 257.5,90.5 C 260.292,93.2019 261.959,97.0352 262.5,102C 261.635,105.561 260.135,108.727 258,111.5C 257.667,111.167 257.333,110.833 257,110.5C 250.722,116.626 243.555,121.293 235.5,124.5C 235.649,125.552 235.483,126.552 235,127.5C 233.915,126.707 232.748,126.04 231.5,125.5C 228.349,126.909 225.349,128.575 222.5,130.5C 223.762,125.819 223.762,121.152 222.5,116.5C 229.968,112.598 237.302,108.432 244.5,104C 249.71,100.291 254.043,95.7912 257.5,90.5 Z"/></g>
<g><path style="opacity:1" fill="#1faec7" d="M 129.5,96.5 C 129.884,98.9294 130.551,101.263 131.5,103.5C 132.833,103.5 134.167,103.5 135.5,103.5C 135.923,104.265 136.257,105.098 136.5,106C 134.31,109.238 134.643,112.405 137.5,115.5C 139.977,116.334 142.144,115.667 144,113.5C 145.069,115.407 146.569,116.741 148.5,117.5C 149.931,118.78 150.598,120.447 150.5,122.5C 139.865,128.152 129.198,133.819 118.5,139.5C 118.5,138.5 118.5,137.5 118.5,136.5C 114.728,136.884 111.728,138.55 109.5,141.5C 105.565,140.929 101.898,140.263 98.5,139.5C 97.5672,135.571 97.2338,131.571 97.5,127.5C 95.3453,127.628 93.3453,127.128 91.5,126C 94.1064,121.663 94.6064,117.163 93,112.5C 90.5657,114.023 87.899,115.023 85,115.5C 84.5045,117.473 84.3379,119.473 84.5,121.5C 81.8774,123.265 78.8774,123.932 75.5,123.5C 74.2258,117.492 74.2258,111.492 75.5,105.5C 77.0038,103.164 79.0038,101.331 81.5,100C 87.0945,99.6493 92.4278,98.4826 97.5,96.5C 99.2578,96.5916 100.924,96.925 102.5,97.5C 102.26,100.579 102.593,103.579 103.5,106.5C 105.467,107.684 107.134,107.351 108.5,105.5C 110.237,102.992 111.07,99.992 111,96.5C 113.169,92.8095 116.336,91.1429 120.5,91.5C 120.291,93.7144 121.124,95.381 123,96.5C 125.17,95.2799 127.337,95.2799 129.5,96.5 Z"/></g>
<g><path style="opacity:1" fill="#066c50" d="M 102.5,97.5 C 104.912,105.294 106.912,105.294 108.5,97.5C 108.5,100.167 108.5,102.833 108.5,105.5C 107.134,107.351 105.467,107.684 103.5,106.5C 102.593,103.579 102.26,100.579 102.5,97.5 Z"/></g>
<g><path style="opacity:1" fill="#05694b" d="M 97.5,112.5 C 100.518,112.335 103.518,112.502 106.5,113C 109.538,115.179 112.538,117.345 115.5,119.5C 114.333,119.833 113.167,120.167 112,120.5C 109.283,120.07 107.116,118.737 105.5,116.5C 102.914,115.52 100.247,115.187 97.5,115.5C 97.5,114.5 97.5,113.5 97.5,112.5 Z"/></g>
<g><path style="opacity:1" fill="#21acbe" d="M 328.5,111.5 C 329.363,114.923 330.53,118.256 332,121.5C 336.365,124.237 338.365,128.237 338,133.5C 339.789,135.229 341.956,135.896 344.5,135.5C 344.5,136.833 344.5,138.167 344.5,139.5C 341.507,140.135 338.507,140.301 335.5,140C 333.563,137.929 331.896,135.762 330.5,133.5C 328.433,130.197 326.267,126.864 324,123.5C 323.808,121.423 323.308,119.423 322.5,117.5C 318.585,114.769 316.252,111.102 315.5,106.5C 314.36,103.975 313.693,101.308 313.5,98.5C 316.127,99.0916 318.794,99.4249 321.5,99.5C 322.988,103.989 325.322,107.989 328.5,111.5 Z"/></g>
<g><path style="opacity:1" fill="#07684a" d="M 117.5,119.5 C 121.122,118.924 124.122,119.924 126.5,122.5C 122.914,124.268 119.247,124.601 115.5,123.5C 116.853,122.476 117.52,121.143 117.5,119.5 Z"/></g>
<g><path style="opacity:1" fill="#e1e2e3" d="M 207.5,123.5 C 204.874,132.675 202.874,142.008 201.5,151.5C 199.918,154.876 199.251,158.542 199.5,162.5C 197.057,168.179 195.39,174.179 194.5,180.5C 193.373,184.683 192.373,189.017 191.5,193.5C 189.815,199.08 188.315,204.746 187,210.5C 186.004,212.66 184.504,214.327 182.5,215.5C 180.194,194.843 178.361,173.843 177,152.5C 175.21,147.889 172.71,143.889 169.5,140.5C 182.278,135.187 194.944,129.52 207.5,123.5 Z"/></g>
<g><path style="opacity:1" fill="#056438" d="M 75.5,105.5 C 74.2258,111.492 74.2258,117.492 75.5,123.5C 78.8774,123.932 81.8774,123.265 84.5,121.5C 85.5553,117.47 88.2219,115.803 92.5,116.5C 91.0922,120.974 89.4255,125.307 87.5,129.5C 90.1873,129.336 92.854,129.503 95.5,130C 96.1045,134.196 96.9378,138.363 98,142.5C 99.3561,143.38 100.856,143.714 102.5,143.5C 103.376,143.369 104.043,143.702 104.5,144.5C 102.369,145.169 100.369,145.835 98.5,146.5C 94.1512,144.48 91.1512,141.146 89.5,136.5C 85.8651,135.684 82.8651,133.85 80.5,131C 77.8333,130.667 75.1667,130.333 72.5,130C 68.3983,126.954 64.065,124.454 59.5,122.5C 63.1879,122.219 66.8546,121.719 70.5,121C 72.1519,119.53 73.1519,117.697 73.5,115.5C 71.7126,111.562 72.3792,108.229 75.5,105.5 Z"/></g>
<g><path style="opacity:1" fill="#056642" d="M 315.5,106.5 C 316.252,111.102 318.585,114.769 322.5,117.5C 323.308,119.423 323.808,121.423 324,123.5C 326.267,126.864 328.433,130.197 330.5,133.5C 328.244,132.562 325.91,132.562 323.5,133.5C 323.357,131.738 323.691,130.071 324.5,128.5C 323.726,127.289 322.893,127.289 322,128.5C 321.405,127.101 321.572,125.768 322.5,124.5C 322.271,120.641 320.438,117.974 317,116.5C 316.174,113.207 315.674,109.874 315.5,106.5 Z"/></g>
<g><path style="opacity:1" fill="#22aec6" d="M 54.5,111.5 C 56.0744,111.937 57.2411,112.937 58,114.5C 58.1862,117.036 58.6862,119.369 59.5,121.5C 59.5,121.833 59.5,122.167 59.5,122.5C 64.065,124.454 68.3983,126.954 72.5,130C 75.1667,130.333 77.8333,130.667 80.5,131C 82.8651,133.85 85.8651,135.684 89.5,136.5C 91.1512,141.146 94.1512,144.48 98.5,146.5C 100.981,147.258 103.648,147.258 106.5,146.5C 97.7313,151.389 89.0647,156.556 80.5,162C 78.8034,162.384 77.1368,162.218 75.5,161.5C 67.1597,156.328 58.4931,151.662 49.5,147.5C 49.3791,135.119 51.0458,123.119 54.5,111.5 Z"/></g>
<g><path style="opacity:1" fill="#1aaec7" d="M 221.5,136.5 C 222.167,137.833 223.167,138.833 224.5,139.5C 228.104,142.602 231.604,145.935 235,149.5C 235.483,150.448 235.649,151.448 235.5,152.5C 242.964,152.909 250.297,152.243 257.5,150.5C 259.308,150.491 260.975,150.991 262.5,152C 264.518,154.432 267.018,156.265 270,157.5C 270.333,161.833 270.667,166.167 271,170.5C 271.875,173.215 273.708,174.548 276.5,174.5C 276.848,179.222 277.515,183.889 278.5,188.5C 276.954,194.716 275.62,201.216 274.5,208C 275.54,210.131 277.04,211.964 279,213.5C 279.333,213.167 279.667,212.833 280,212.5C 279.368,219.101 281.201,224.767 285.5,229.5C 285.424,232.973 284.758,236.306 283.5,239.5C 285.39,239.703 286.89,239.037 288,237.5C 288.944,238.263 289.444,239.263 289.5,240.5C 288.604,242.801 288.438,245.134 289,247.5C 290.11,249.037 291.61,249.703 293.5,249.5C 293.708,247.08 293.374,244.747 292.5,242.5C 293.787,239.719 295.787,239.052 298.5,240.5C 297.252,243.494 297.252,246.494 298.5,249.5C 299.205,247.328 300.205,245.328 301.5,243.5C 302.711,244.274 302.711,245.107 301.5,246C 302.91,246.368 303.91,247.201 304.5,248.5C 301.813,250.03 299.813,252.197 298.5,255C 294.343,257.824 290.343,260.824 286.5,264C 285.177,264.816 284.511,265.983 284.5,267.5C 254.678,289.878 221.012,299.378 183.5,296C 123.11,287.659 81.1097,255.492 57.5,199.5C 59.8998,196.097 62.8998,193.43 66.5,191.5C 68.7011,196.486 69.7011,201.82 69.5,207.5C 70.5,207.5 71.5,207.5 72.5,207.5C 74.8396,211.037 75.5063,214.871 74.5,219C 77.7626,219.136 80.7626,218.136 83.5,216C 82.9415,215.275 82.6082,214.442 82.5,213.5C 83.8944,208.805 85.3944,204.139 87,199.5C 87.855,194.475 88.6884,189.475 89.5,184.5C 93.7749,183.681 97.7749,182.347 101.5,180.5C 102.833,181.5 104.167,182.5 105.5,183.5C 107.589,186.437 109.089,189.77 110,193.5C 111.638,195.734 113.805,197.067 116.5,197.5C 116.343,198.873 116.51,200.207 117,201.5C 117.667,200.167 118.333,200.167 119,201.5C 120,203.5 121,205.5 122,207.5C 122.172,214.346 122.672,221.013 123.5,227.5C 123.5,228.5 123.5,229.5 123.5,230.5C 123.036,237.968 123.703,245.301 125.5,252.5C 126.183,252.863 126.85,253.196 127.5,253.5C 129.173,254.343 130.34,255.676 131,257.5C 132.428,263.904 134.761,269.904 138,275.5C 141.224,276.688 144.057,278.522 146.5,281C 148.473,281.495 150.473,281.662 152.5,281.5C 154.085,280.526 155.085,279.026 155.5,277C 153.575,277.135 151.575,277.302 149.5,277.5C 149.5,275.833 149.5,274.167 149.5,272.5C 148.5,272.5 147.5,272.5 146.5,272.5C 146.231,270.571 146.731,268.905 148,267.5C 156.394,268.519 156.561,267.519 148.5,264.5C 147.795,261.911 147.795,259.244 148.5,256.5C 146.053,256.385 144.053,255.385 142.5,253.5C 141.903,253.265 141.57,252.765 141.5,252C 143.969,248.34 147.303,246.173 151.5,245.5C 151.306,242.67 150.639,240.004 149.5,237.5C 152.187,237.664 154.854,237.497 157.5,237C 159.035,234.376 160.202,231.543 161,228.5C 162.333,227.833 163.333,226.833 164,225.5C 163.928,216.405 168.428,211.738 177.5,211.5C 178.792,213.255 179.792,215.255 180.5,217.5C 181.183,217.137 181.85,216.804 182.5,216.5C 183.161,219.787 183.661,223.12 184,226.5C 184.419,227.672 185.085,228.672 186,229.5C 187.449,226.384 189.616,223.884 192.5,222C 192.167,221.667 191.833,221.333 191.5,221C 193.261,216.347 194.761,211.514 196,206.5C 201.308,203.711 203.642,199.378 203,193.5C 201.842,193.002 201.009,192.169 200.5,191C 201.14,185.374 202.306,179.874 204,174.5C 207.193,172.629 209.026,169.796 209.5,166C 208.523,164.503 207.523,163.003 206.5,161.5C 208.96,152.632 211.294,143.799 213.5,135C 215.664,134.086 217.664,132.919 219.5,131.5C 220.17,133.291 220.837,134.958 221.5,136.5 Z"/></g>
<g><path style="opacity:1" fill="#23a8ae" d="M 109.5,141.5 C 109.585,142.995 108.919,143.995 107.5,144.5C 105.93,142.621 104.264,142.288 102.5,143.5C 100.856,143.714 99.3561,143.38 98,142.5C 96.9378,138.363 96.1045,134.196 95.5,130C 92.854,129.503 90.1873,129.336 87.5,129.5C 89.4255,125.307 91.0922,120.974 92.5,116.5C 88.2219,115.803 85.5553,117.47 84.5,121.5C 84.3379,119.473 84.5045,117.473 85,115.5C 87.899,115.023 90.5657,114.023 93,112.5C 94.6064,117.163 94.1064,121.663 91.5,126C 93.3453,127.128 95.3453,127.628 97.5,127.5C 97.2338,131.571 97.5672,135.571 98.5,139.5C 101.898,140.263 105.565,140.929 109.5,141.5 Z"/></g>
<g><path style="opacity:1" fill="#13694f" d="M 118.5,139.5 C 114.864,142.323 110.864,144.656 106.5,146.5C 103.648,147.258 100.981,147.258 98.5,146.5C 100.369,145.835 102.369,145.169 104.5,144.5C 104.043,143.702 103.376,143.369 102.5,143.5C 104.264,142.288 105.93,142.621 107.5,144.5C 108.919,143.995 109.585,142.995 109.5,141.5C 111.728,138.55 114.728,136.884 118.5,136.5C 118.5,137.5 118.5,138.5 118.5,139.5 Z"/></g>
<g><path style="opacity:1" fill="#026643" d="M 224.5,139.5 C 226.435,140.15 228.435,140.483 230.5,140.5C 230.351,141.552 230.517,142.552 231,143.5C 233.967,144.415 235.8,146.415 236.5,149.5C 243.512,150.721 250.512,150.721 257.5,149.5C 257.5,149.833 257.5,150.167 257.5,150.5C 250.297,152.243 242.964,152.909 235.5,152.5C 235.649,151.448 235.483,150.448 235,149.5C 231.604,145.935 228.104,142.602 224.5,139.5 Z"/></g>
<g><path style="opacity:1" fill="#cbcece" d="M 169.5,140.5 C 172.71,143.889 175.21,147.889 177,152.5C 178.361,173.843 180.194,194.843 182.5,215.5C 182.5,215.833 182.5,216.167 182.5,216.5C 181.85,216.804 181.183,217.137 180.5,217.5C 179.792,215.255 178.792,213.255 177.5,211.5C 177.384,208.14 177.051,204.807 176.5,201.5C 175.743,198.209 175.076,194.876 174.5,191.5C 173.942,186.484 173.275,181.484 172.5,176.5C 171.301,170.768 170.301,165.101 169.5,159.5C 168.833,159.5 168.5,159.167 168.5,158.5C 167.285,154.1 165.785,149.767 164,145.5C 163.583,144.244 162.75,143.577 161.5,143.5C 163.936,142.129 166.603,141.129 169.5,140.5 Z"/></g>
<g><path style="opacity:1" fill="#f0f2f2" d="M 227.5,86.5 C 229.735,87.2279 231.568,88.5612 233,90.5C 234.972,94.7472 236.472,99.0805 237.5,103.5C 237.649,104.552 237.483,105.552 237,106.5C 236.282,105.549 235.449,105.383 234.5,106C 234.07,106.92 233.736,107.753 233.5,108.5C 231.354,104.897 230.354,105.563 230.5,110.5C 227.487,111.132 224.487,111.466 221.5,111.5C 222.811,112.258 223.311,113.258 223,114.5C 221.083,115.295 218.917,115.462 216.5,115C 215.663,116.011 215.33,117.178 215.5,118.5C 213.821,118.285 212.821,118.952 212.5,120.5C 210.739,121.313 209.072,122.313 207.5,123.5C 194.944,129.52 182.278,135.187 169.5,140.5C 166.603,141.129 163.936,142.129 161.5,143.5C 155.651,145.597 149.985,147.931 144.5,150.5C 143.508,150.328 142.842,150.662 142.5,151.5C 128.612,156.459 114.945,161.792 101.5,167.5C 95.7123,169.231 90.0456,171.231 84.5,173.5C 82.5679,174.584 80.7346,175.917 79,177.5C 78.1268,177.265 77.2935,176.931 76.5,176.5C 72.161,178.327 67.8277,179.994 63.5,181.5C 60.054,183.172 56.8873,182.839 54,180.5C 54.4265,177.879 55.9265,175.879 58.5,174.5C 64.6572,171.588 70.3239,167.922 75.5,163.5C 73.0752,162.351 73.0752,161.684 75.5,161.5C 77.1368,162.218 78.8034,162.384 80.5,162C 89.0647,156.556 97.7313,151.389 106.5,146.5C 110.864,144.656 114.864,142.323 118.5,139.5C 129.198,133.819 139.865,128.152 150.5,122.5C 153.11,120.647 155.777,118.98 158.5,117.5C 161.415,116.126 164.748,114.793 168.5,113.5C 174.299,110.198 179.966,106.698 185.5,103C 189.142,101.73 192.808,100.564 196.5,99.5C 196.863,98.8165 197.196,98.1499 197.5,97.5C 198.391,96.8902 199.391,96.5569 200.5,96.5C 203.455,95.8413 206.455,95.5079 209.5,95.5C 209.5,94.5 209.5,93.5 209.5,92.5C 215.519,90.4954 221.519,88.4954 227.5,86.5 Z"/></g>
<g><path style="opacity:1" fill="#0e604a" d="M 142.5,151.5 C 142.842,150.662 143.508,150.328 144.5,150.5C 147.91,150.457 151.243,150.957 154.5,152C 155.488,154.167 156.821,156 158.5,157.5C 158.517,159.565 158.85,161.565 159.5,163.5C 158.833,163.167 158.167,162.833 157.5,162.5C 156.043,159.491 154.709,156.324 153.5,153C 149.746,151.622 146.08,151.122 142.5,151.5 Z"/></g>
<g><path style="opacity:1" fill="#2696a6" d="M 161.5,143.5 C 162.75,143.577 163.583,144.244 164,145.5C 165.785,149.767 167.285,154.1 168.5,158.5C 167.777,156.787 166.443,155.787 164.5,155.5C 162.675,156.651 160.675,157.318 158.5,157.5C 156.821,156 155.488,154.167 154.5,152C 151.243,150.957 147.91,150.457 144.5,150.5C 149.985,147.931 155.651,145.597 161.5,143.5 Z"/></g>
<g><path style="opacity:1" fill="#a0b2b7" d="M 201.5,151.5 C 202.748,152.334 203.415,153.667 203.5,155.5C 203.377,158.602 202.043,160.935 199.5,162.5C 199.251,158.542 199.918,154.876 201.5,151.5 Z"/></g>
<g><path style="opacity:1" fill="#04532a" d="M 142.5,151.5 C 146.08,151.122 149.746,151.622 153.5,153C 154.709,156.324 156.043,159.491 157.5,162.5C 156.732,161.737 156.232,160.737 156,159.5C 148.659,163.538 141.326,166.538 134,168.5C 133.667,168.167 133.333,167.833 133,167.5C 132.07,169.552 130.57,171.052 128.5,172C 121.145,173.703 114.312,176.203 108,179.5C 106.244,178.015 105.077,178.348 104.5,180.5C 99.2474,177.156 98.2474,172.823 101.5,167.5C 114.945,161.792 128.612,156.459 142.5,151.5 Z"/></g>
<g><path style="opacity:1" fill="#056333" d="M 157.5,162.5 C 158.167,162.833 158.833,163.167 159.5,163.5C 159.5,164.5 159.5,165.5 159.5,166.5C 160.833,166.5 162.167,166.5 163.5,166.5C 163.57,171.16 164.737,175.494 167,179.5C 167.741,178.359 168.575,178.359 169.5,179.5C 170.316,182.451 171.316,185.284 172.5,188C 172.156,189.365 171.489,190.532 170.5,191.5C 170.624,192.107 170.957,192.44 171.5,192.5C 170.849,195.289 171.516,197.956 173.5,200.5C 174.325,201.386 175.325,201.719 176.5,201.5C 177.051,204.807 177.384,208.14 177.5,211.5C 168.428,211.738 163.928,216.405 164,225.5C 163.333,226.833 162.333,227.833 161,228.5C 160.202,231.543 159.035,234.376 157.5,237C 154.854,237.497 152.187,237.664 149.5,237.5C 150.639,240.004 151.306,242.67 151.5,245.5C 147.303,246.173 143.969,248.34 141.5,252C 141.57,252.765 141.903,253.265 142.5,253.5C 143.687,256.507 143.02,259.174 140.5,261.5C 141.722,263.978 143.722,264.978 146.5,264.5C 144.914,267.271 144.414,270.271 145,273.5C 147.085,276.746 149.585,279.413 152.5,281.5C 150.473,281.662 148.473,281.495 146.5,281C 144.057,278.522 141.224,276.688 138,275.5C 134.761,269.904 132.428,263.904 131,257.5C 130.34,255.676 129.173,254.343 127.5,253.5C 125.455,245.856 124.122,238.189 123.5,230.5C 123.5,229.5 123.5,228.5 123.5,227.5C 123.666,220.159 123.5,212.826 123,205.5C 121.726,202.064 119.559,199.397 116.5,197.5C 113.805,197.067 111.638,195.734 110,193.5C 109.089,189.77 107.589,186.437 105.5,183.5C 105.443,182.391 105.11,181.391 104.5,180.5C 105.077,178.348 106.244,178.015 108,179.5C 114.312,176.203 121.145,173.703 128.5,172C 130.57,171.052 132.07,169.552 133,167.5C 133.333,167.833 133.667,168.167 134,168.5C 141.326,166.538 148.659,163.538 156,159.5C 156.232,160.737 156.732,161.737 157.5,162.5 Z"/></g>
<g><path style="opacity:1" fill="#24adc3" d="M 168.5,158.5 C 168.5,159.167 168.833,159.5 169.5,159.5C 169.795,161.735 169.461,163.735 168.5,165.5C 165.162,165.935 162.162,165.268 159.5,163.5C 158.85,161.565 158.517,159.565 158.5,157.5C 160.675,157.318 162.675,156.651 164.5,155.5C 166.443,155.787 167.777,156.787 168.5,158.5 Z"/></g>
<g><path style="opacity:1" fill="#dde1e1" d="M 49.5,147.5 C 58.4931,151.662 67.1597,156.328 75.5,161.5C 73.0752,161.684 73.0752,162.351 75.5,163.5C 70.3239,167.922 64.6572,171.588 58.5,174.5C 59.7058,172.563 59.3725,170.896 57.5,169.5C 55.0584,166.271 52.3918,163.271 49.5,160.5C 47.7048,157.536 45.7048,154.702 43.5,152C 44.8975,149.791 46.8975,148.291 49.5,147.5 Z"/></g>
<g><path style="opacity:1" fill="#3a94a6" d="M 49.5,160.5 C 52.3918,163.271 55.0584,166.271 57.5,169.5C 57.4226,170.75 56.756,171.583 55.5,172C 53.8659,172.494 52.1992,172.66 50.5,172.5C 50.4955,168.466 50.1621,164.466 49.5,160.5 Z"/></g>
<g><path style="opacity:1" fill="#a5b0ac" d="M 169.5,159.5 C 170.301,165.101 171.301,170.768 172.5,176.5C 171.417,176.539 170.417,176.873 169.5,177.5C 167.333,175.17 165.666,172.503 164.5,169.5C 166.375,168.591 167.708,167.257 168.5,165.5C 169.461,163.735 169.795,161.735 169.5,159.5 Z"/></g>
<g><path style="opacity:1" fill="#2296a9" d="M 222.5,116.5 C 223.762,121.152 223.762,125.819 222.5,130.5C 221.539,132.265 221.205,134.265 221.5,136.5C 220.837,134.958 220.17,133.291 219.5,131.5C 217.664,132.919 215.664,134.086 213.5,135C 211.294,143.799 208.96,152.632 206.5,161.5C 207.523,163.003 208.523,164.503 209.5,166C 209.026,169.796 207.193,172.629 204,174.5C 202.306,179.874 201.14,185.374 200.5,191C 201.009,192.169 201.842,193.002 203,193.5C 203.642,199.378 201.308,203.711 196,206.5C 194.761,211.514 193.261,216.347 191.5,221C 191.833,221.333 192.167,221.667 192.5,222C 189.616,223.884 187.449,226.384 186,229.5C 185.085,228.672 184.419,227.672 184,226.5C 183.661,223.12 183.161,219.787 182.5,216.5C 182.5,216.167 182.5,215.833 182.5,215.5C 184.504,214.327 186.004,212.66 187,210.5C 188.315,204.746 189.815,199.08 191.5,193.5C 193.017,193.489 194.184,192.823 195,191.5C 196.549,188.688 197.382,185.688 197.5,182.5C 195.821,182.715 194.821,182.048 194.5,180.5C 195.39,174.179 197.057,168.179 199.5,162.5C 202.043,160.935 203.377,158.602 203.5,155.5C 203.415,153.667 202.748,152.334 201.5,151.5C 202.874,142.008 204.874,132.675 207.5,123.5C 209.072,122.313 210.739,121.313 212.5,120.5C 216.063,119.718 219.397,118.384 222.5,116.5 Z"/></g>
<g><path style="opacity:1" fill="#2695a1" d="M 101.5,167.5 C 98.2474,172.823 99.2474,177.156 104.5,180.5C 105.11,181.391 105.443,182.391 105.5,183.5C 104.167,182.5 102.833,181.5 101.5,180.5C 99.9142,179.852 98.2475,179.352 96.5,179C 98.2785,176.865 98.9452,174.365 98.5,171.5C 95.1878,172.485 91.8545,173.485 88.5,174.5C 87.1966,176.589 87.6966,178.256 90,179.5C 90.7175,178.549 91.5509,178.383 92.5,179C 93.5709,180.825 92.9042,181.992 90.5,182.5C 88.5762,179.321 86.4096,178.987 84,181.5C 83.5357,180.906 83.369,180.239 83.5,179.5C 83.3253,177.379 83.6586,175.379 84.5,173.5C 90.0456,171.231 95.7123,169.231 101.5,167.5 Z"/></g>
<g><path style="opacity:1" fill="#24acb6" d="M 257.5,150.5 C 257.5,150.167 257.5,149.833 257.5,149.5C 259.199,149.34 260.866,149.506 262.5,150C 264.576,153.088 267.409,154.921 271,155.5C 271.173,159.541 271.673,163.541 272.5,167.5C 276.405,171.394 278.572,176.06 279,181.5C 279.796,184.039 279.629,186.372 278.5,188.5C 277.515,183.889 276.848,179.222 276.5,174.5C 273.708,174.548 271.875,173.215 271,170.5C 270.667,166.167 270.333,161.833 270,157.5C 267.018,156.265 264.518,154.432 262.5,152C 260.975,150.991 259.308,150.491 257.5,150.5 Z"/></g>
<g><path style="opacity:1" fill="#c0bfc0" d="M 57.5,169.5 C 59.3725,170.896 59.7058,172.563 58.5,174.5C 55.9265,175.879 54.4265,177.879 54,180.5C 56.8873,182.839 60.054,183.172 63.5,181.5C 65.6477,181.389 65.981,182.056 64.5,183.5C 65.4822,186.096 66.1489,188.762 66.5,191.5C 62.8998,193.43 59.8998,196.097 57.5,199.5C 44.0794,213.024 41.5794,228.358 50,245.5C 57.2581,256.093 66.4248,264.593 77.5,271C 114.171,289.999 153.171,300.665 194.5,303C 149.03,305.695 104.697,299.695 61.5,285C 46.7826,279.477 33.1159,272.144 20.5,263C 8.96273,254.063 1.96273,242.563 -0.5,228.5C -0.5,227.833 -0.5,227.167 -0.5,226.5C 1.90191,210.564 9.90191,198.064 23.5,189C 32.5964,183.461 41.5964,177.961 50.5,172.5C 52.1992,172.66 53.8659,172.494 55.5,172C 56.756,171.583 57.4226,170.75 57.5,169.5 Z"/></g>
<g><path style="opacity:1" fill="#9fb3b8" d="M 194.5,180.5 C 194.821,182.048 195.821,182.715 197.5,182.5C 197.382,185.688 196.549,188.688 195,191.5C 194.184,192.823 193.017,193.489 191.5,193.5C 192.373,189.017 193.373,184.683 194.5,180.5 Z"/></g>
<g><path style="opacity:1" fill="#2196ac" d="M 101.5,180.5 C 97.7749,182.347 93.7749,183.681 89.5,184.5C 88.6884,189.475 87.855,194.475 87,199.5C 85.3944,204.139 83.8944,208.805 82.5,213.5C 82.6082,214.442 82.9415,215.275 83.5,216C 80.7626,218.136 77.7626,219.136 74.5,219C 75.5063,214.871 74.8396,211.037 72.5,207.5C 74.3863,206.639 76.2196,205.639 78,204.5C 79.0759,195.877 80.9093,187.543 83.5,179.5C 83.369,180.239 83.5357,180.906 84,181.5C 86.4096,178.987 88.5762,179.321 90.5,182.5C 92.9042,181.992 93.5709,180.825 92.5,179C 91.5509,178.383 90.7175,178.549 90,179.5C 87.6966,178.256 87.1966,176.589 88.5,174.5C 91.8545,173.485 95.1878,172.485 98.5,171.5C 98.9452,174.365 98.2785,176.865 96.5,179C 98.2475,179.352 99.9142,179.852 101.5,180.5 Z"/></g>
<g><path style="opacity:1" fill="#1d5e3b" d="M 159.5,163.5 C 162.162,165.268 165.162,165.935 168.5,165.5C 167.708,167.257 166.375,168.591 164.5,169.5C 165.666,172.503 167.333,175.17 169.5,177.5C 170.417,176.873 171.417,176.539 172.5,176.5C 173.275,181.484 173.942,186.484 174.5,191.5C 173.609,192.11 172.609,192.443 171.5,192.5C 170.957,192.44 170.624,192.107 170.5,191.5C 171.489,190.532 172.156,189.365 172.5,188C 171.316,185.284 170.316,182.451 169.5,179.5C 168.575,178.359 167.741,178.359 167,179.5C 164.737,175.494 163.57,171.16 163.5,166.5C 162.167,166.5 160.833,166.5 159.5,166.5C 159.5,165.5 159.5,164.5 159.5,163.5 Z"/></g>
<g><path style="opacity:1" fill="#dde1e2" d="M 84.5,173.5 C 83.6586,175.379 83.3253,177.379 83.5,179.5C 80.9093,187.543 79.0759,195.877 78,204.5C 76.2196,205.639 74.3863,206.639 72.5,207.5C 71.5,207.5 70.5,207.5 69.5,207.5C 69.7011,201.82 68.7011,196.486 66.5,191.5C 66.1489,188.762 65.4822,186.096 64.5,183.5C 65.981,182.056 65.6477,181.389 63.5,181.5C 67.8277,179.994 72.161,178.327 76.5,176.5C 77.2935,176.931 78.1268,177.265 79,177.5C 80.7346,175.917 82.5679,174.584 84.5,173.5 Z"/></g>
<g><path style="opacity:1" fill="#a5b0a8" d="M 174.5,191.5 C 175.076,194.876 175.743,198.209 176.5,201.5C 175.325,201.719 174.325,201.386 173.5,200.5C 171.516,197.956 170.849,195.289 171.5,192.5C 172.609,192.443 173.609,192.11 174.5,191.5 Z"/></g>
<g><path style="opacity:1" fill="#22a8b3" d="M 278.5,188.5 C 277.491,193.796 277.324,199.129 278,204.5C 278.561,207.29 279.894,209.623 282,211.5C 282.333,214.833 282.667,218.167 283,221.5C 286.875,226.247 289.375,231.58 290.5,237.5C 287.802,235.428 286.135,232.762 285.5,229.5C 281.201,224.767 279.368,219.101 280,212.5C 279.667,212.833 279.333,213.167 279,213.5C 277.04,211.964 275.54,210.131 274.5,208C 275.62,201.216 276.954,194.716 278.5,188.5 Z"/></g>
<g><path style="opacity:1" fill="#1ea2a2" d="M 116.5,197.5 C 119.559,199.397 121.726,202.064 123,205.5C 123.5,212.826 123.666,220.159 123.5,227.5C 122.672,221.013 122.172,214.346 122,207.5C 121,205.5 120,203.5 119,201.5C 118.333,200.167 117.667,200.167 117,201.5C 116.51,200.207 116.343,198.873 116.5,197.5 Z"/></g>
<g><path style="opacity:1" fill="#20abc1" d="M 344.5,156.5 C 342.377,196.745 326.71,230.578 297.5,258C 293.551,261.796 289.217,264.963 284.5,267.5C 284.511,265.983 285.177,264.816 286.5,264C 290.343,260.824 294.343,257.824 298.5,255C 299.813,252.197 301.813,250.03 304.5,248.5C 303.91,247.201 302.91,246.368 301.5,246C 302.711,245.107 302.711,244.274 301.5,243.5C 300.205,245.328 299.205,247.328 298.5,249.5C 297.252,246.494 297.252,243.494 298.5,240.5C 295.787,239.052 293.787,239.719 292.5,242.5C 293.374,244.747 293.708,247.08 293.5,249.5C 291.61,249.703 290.11,249.037 289,247.5C 288.438,245.134 288.604,242.801 289.5,240.5C 289.444,239.263 288.944,238.263 288,237.5C 286.89,239.037 285.39,239.703 283.5,239.5C 284.758,236.306 285.424,232.973 285.5,229.5C 286.135,232.762 287.802,235.428 290.5,237.5C 299.652,237.84 307.152,234.506 313,227.5C 313.988,224.576 314.654,221.576 315,218.5C 316.242,217.128 317.742,216.128 319.5,215.5C 320.583,213.208 320.583,210.875 319.5,208.5C 321.424,203.314 324.757,199.314 329.5,196.5C 330.003,187.856 330.17,179.189 330,170.5C 334.062,164.936 338.896,160.269 344.5,156.5 Z"/></g>
<g><path style="opacity:1" fill="#1d9d9a" d="M 123.5,230.5 C 124.122,238.189 125.455,245.856 127.5,253.5C 126.85,253.196 126.183,252.863 125.5,252.5C 123.703,245.301 123.036,237.968 123.5,230.5 Z"/></g>
<g><path style="opacity:1" fill="#1facb9" d="M 142.5,253.5 C 144.053,255.385 146.053,256.385 148.5,256.5C 147.795,259.244 147.795,261.911 148.5,264.5C 156.561,267.519 156.394,268.519 148,267.5C 146.731,268.905 146.231,270.571 146.5,272.5C 147.5,272.5 148.5,272.5 149.5,272.5C 149.5,274.167 149.5,275.833 149.5,277.5C 151.575,277.302 153.575,277.135 155.5,277C 155.085,279.026 154.085,280.526 152.5,281.5C 149.585,279.413 147.085,276.746 145,273.5C 144.414,270.271 144.914,267.271 146.5,264.5C 143.722,264.978 141.722,263.978 140.5,261.5C 143.02,259.174 143.687,256.507 142.5,253.5 Z"/></g>
</svg>
